<?xml version="1.0" encoding="UTF-8" standalone="no"?>
<svg width="287px" height="70px" viewBox="0 0 287 70" version="1.1" xmlns="http://www.w3.org/2000/svg" xmlns:xlink="http://www.w3.org/1999/xlink" xmlns:sketch="http://www.bohemiancoding.com/sketch/ns">
    <defs></defs>
    <g id="Page-1" stroke="none" stroke-width="1" fill="none" fill-rule="evenodd" sketch:type="MSPage">
        <g id="Artboard-1" sketch:type="MSArtboardGroup" transform="translate(-15.000000, -107.000000)" fill="#665F57">
            <g id="Segment-Logo" sketch:type="MSLayerGroup" transform="translate(15.000000, 107.000000)">
                <path d="M12.673,53.356 C11.305,53.356 9.865,53.285 8.425,53.14 C5.256,52.709 3.744,52.349 0,50.837 L0.864,48.028 L1.728,44.427 L2.304,41.404 L3.6,41.188 C5.112,43.42 5.832,44.285 7.272,45.365 C9.36,46.877 11.736,47.669 14.257,47.669 C19.369,47.669 22.898,44.789 22.898,40.541 C22.898,38.74 22.178,36.94 20.954,35.717 C19.586,34.349 18.002,33.34 13.682,31.036 C8.065,28.227 6.193,27.076 4.177,25.131 C1.873,22.827 0.577,19.587 0.577,15.986 C0.576,6.481 8.208,0 19.514,0 C20.666,0 21.818,0.072 22.898,0.216 C25.922,0.504 27.578,1.008 31.467,2.52 L30.459,5.256 L29.379,8.856 L28.803,11.088 L27.651,11.16 C26.067,9 25.275,8.136 23.835,7.272 C22.251,6.264 20.163,5.76 18.074,5.76 C13.682,5.76 10.802,8.208 10.802,11.952 C10.802,13.824 11.666,15.624 13.178,16.921 C14.69,18.145 16.418,19.153 20.595,21.241 C26.283,24.049 28.084,25.201 30.028,27.506 C32.116,29.882 33.196,32.834 33.196,36.219 C33.195,46.156 24.626,53.356 12.673,53.356 L12.673,53.356 Z" id="Shape" sketch:type="MSShapeGroup"></path>
                <path d="M70.202,32.475 L69.41,33.412 L66.026,33.412 L58.609,33.34 L51.984,33.412 L48.6,33.555 C48.816,41.98 53.281,46.805 60.985,46.805 C62.065,46.805 63.073,46.733 64.081,46.517 C65.809,46.229 66.745,45.725 68.689,44.285 L69.697,44.861 L68.329,48.245 L67.249,51.414 C66.097,51.773 65.161,52.061 64.513,52.206 C61.992,52.782 59.04,53.142 56.592,53.142 C45.575,53.142 38.302,45.726 38.302,34.42 C38.302,23.187 45.43,15.411 55.727,15.411 C64.584,15.411 70.345,20.955 70.345,29.452 C70.346,30.171 70.274,31.179 70.202,32.475 L70.202,32.475 Z M55.153,19.658 C52.849,19.658 51.12,20.595 49.968,22.538 C48.96,24.194 48.744,25.347 48.528,29.018 L51.84,29.018 L56.592,28.874 C59.544,28.802 60.696,27.866 60.696,25.634 C60.697,22.25 58.321,19.658 55.153,19.658 L55.153,19.658 Z" id="Shape" sketch:type="MSShapeGroup"></path>
                <path d="M110.81,19.442 L109.73,21.674 C107.57,21.53 106.706,21.458 105.554,21.458 C105.338,21.458 105.05,21.458 104.834,21.53 L104.114,21.53 C105.338,23.474 105.626,24.41 105.626,26.642 C105.626,34.13 99.793,38.667 90.001,38.667 C88.201,38.667 87.553,38.595 85.825,38.234 C84.385,39.53 83.953,40.251 83.953,41.258 C83.953,43.779 86.545,44.714 93.53,44.714 L97.202,44.714 C105.41,44.714 109.515,48.026 109.515,54.579 C109.515,63.364 101.45,69.268 89.353,69.268 C79.776,69.268 73.295,65.164 73.295,59.115 C73.295,57.315 73.871,55.803 74.951,54.579 C75.959,53.499 76.679,52.995 79.2,51.699 L81.144,50.69 L79.704,50.114 C77.183,49.106 75.672,47.162 75.672,45.146 C75.672,43.417 76.608,41.906 78.696,40.177 L82.297,37.225 C78.048,34.993 76.104,31.825 76.104,27.432 C76.104,20.231 81.937,15.839 91.514,15.839 C94.754,15.839 96.555,16.127 99.075,17.063 L105.628,16.991 C107.644,16.991 108.796,16.919 111.532,16.631 L112.036,17.279 L110.81,19.442 L110.81,19.442 Z M98.785,53.861 C96.985,52.781 95.041,52.564 88.92,52.564 C85.752,52.564 84.96,52.709 83.591,53.501 C81.503,54.653 80.423,56.237 80.423,58.182 C80.423,62.142 84.239,64.59 90.288,64.59 C96.624,64.59 101.017,61.854 101.017,57.821 C101.017,56.165 100.225,54.653 98.785,53.861 L98.785,53.861 Z M90.792,19.73 C90.576,19.73 90.432,19.802 90.288,19.802 C87.048,20.09 85.536,22.178 85.536,26.427 C85.536,31.683 87.48,34.707 91.008,34.707 C94.393,34.707 96.193,32.403 96.193,28.082 C96.192,22.754 94.176,19.73 90.792,19.73 L90.792,19.73 Z" id="Shape" sketch:type="MSShapeGroup"></path>
                <path d="M170.931,51.701 L165.243,51.701 L162.219,51.845 C162.435,50.405 162.652,49.324 162.723,48.605 C162.94,46.876 163.156,42.197 163.156,38.164 L163.156,32.116 L163.156,31.683 C163.156,29.091 163.011,27.795 162.652,26.571 C162.004,24.411 159.987,23.043 157.467,23.043 C155.45,23.043 153.506,23.907 151.994,25.419 C150.266,27.219 149.834,28.587 149.834,33.124 L149.834,38.236 C149.834,44.789 150.266,48.749 151.274,51.845 L148.106,51.701 L142.417,51.701 L139.393,51.845 C139.609,50.405 139.753,49.324 139.753,48.605 C139.969,46.876 140.185,42.197 140.257,38.164 L140.329,32.116 L140.329,31.756 C140.329,29.164 140.185,27.724 139.825,26.571 C139.105,24.411 137.089,23.043 134.64,23.043 C132.552,23.043 130.68,23.907 129.167,25.419 C127.439,27.219 127.007,28.659 127.007,33.124 L127.007,38.236 C127.007,44.789 127.439,48.749 128.447,51.845 L125.279,51.701 L119.591,51.701 L116.567,51.845 C116.783,50.405 116.927,49.324 116.999,48.605 C117.215,46.876 117.431,41.98 117.431,38.164 L117.575,30.1 C117.575,26.572 117.359,24.052 116.999,22.612 C116.639,21.1 115.559,20.38 113.831,20.38 L113.255,20.38 L114.695,17.14 L117.575,16.996 L123.335,16.852 L126.792,16.636 L126.648,22.757 L129.528,20.309 C132.984,17.429 135.864,16.133 139.465,16.133 C144.434,16.133 147.746,18.365 149.33,22.902 L152.354,20.31 C155.738,17.43 158.69,16.134 162.219,16.134 C165.963,16.134 168.988,17.502 170.86,20.022 C172.373,22.182 172.804,24.054 172.732,29.239 L172.661,38.239 C172.589,44.792 173.093,48.752 174.1,51.848 L170.931,51.701 L170.931,51.701 Z" id="Shape" sketch:type="MSShapeGroup"></path>
                <path d="M212.472,32.475 L211.68,33.412 L208.296,33.412 L200.879,33.34 L194.255,33.412 L190.87,33.556 C191.086,41.981 195.551,46.806 203.255,46.806 C204.335,46.806 205.344,46.734 206.352,46.518 C208.081,46.23 209.016,45.726 210.96,44.286 L211.968,44.862 L210.6,48.246 L209.52,51.415 C208.368,51.774 207.432,52.062 206.784,52.207 C204.264,52.783 201.312,53.143 198.864,53.143 C187.846,53.143 180.574,45.727 180.574,34.421 C180.574,23.188 187.703,15.412 198,15.412 C206.856,15.412 212.617,20.956 212.617,29.453 C212.616,30.171 212.544,31.179 212.472,32.475 L212.472,32.475 Z M197.423,19.658 C195.118,19.658 193.391,20.595 192.238,22.538 C191.23,24.194 191.014,25.347 190.798,29.018 L194.11,29.018 L198.863,28.874 C201.815,28.802 202.967,27.866 202.967,25.634 C202.967,22.25 200.591,19.658 197.423,19.658 L197.423,19.658 Z" id="Shape" sketch:type="MSShapeGroup"></path>
                <path d="M252.143,51.701 L246.455,51.701 L243.431,51.845 C243.647,50.405 243.864,49.324 243.935,48.605 C244.08,47.453 244.152,45.725 244.223,43.42 C244.295,41.116 244.368,39.388 244.368,38.163 L244.368,32.115 C244.368,29.162 244.223,27.794 243.792,26.57 C243.072,24.41 240.912,23.042 238.247,23.042 C236.159,23.042 234.143,23.906 232.631,25.418 C230.831,27.218 230.399,28.658 230.399,33.123 L230.399,38.235 C230.399,44.715 230.832,48.748 231.839,51.844 L228.671,51.7 L222.983,51.7 L219.959,51.844 C220.247,50.404 220.391,49.323 220.463,48.604 C220.679,46.875 220.895,41.979 220.895,38.163 L221.04,30.099 C221.04,26.571 220.752,24.051 220.392,22.611 C220.033,21.099 219.024,20.379 217.296,20.379 L216.72,20.379 L218.16,17.139 L221.04,16.995 L226.801,16.851 L230.185,16.635 L230.041,22.683 L232.993,20.307 C236.665,17.354 239.401,16.131 243.145,16.131 C247.034,16.131 250.058,17.499 252.002,20.019 C253.586,22.179 254.018,24.123 253.946,29.236 L253.874,38.236 C253.802,44.789 254.306,48.749 255.313,51.845 L252.143,51.701 L252.143,51.701 Z" id="Shape" sketch:type="MSShapeGroup"></path>
                <path d="M285.189,19.946 L284.253,22.611 C281.444,22.395 280.437,22.323 278.204,22.323 L275.324,22.323 L275.108,28.948 L275.108,36.58 L275.108,37.084 C275.108,40.757 275.179,41.837 275.54,43.277 C276.116,45.653 277.916,47.021 280.364,47.021 C281.948,47.021 283.173,46.661 284.972,45.725 L285.836,46.229 L285.116,48.533 L284.395,51.557 C280.219,52.709 278.13,53.069 275.827,53.069 C268.627,53.069 265.53,49.469 265.53,41.045 L265.53,37.733 L265.602,30.749 C265.673,26.933 265.385,24.412 265.026,22.972 C264.666,21.46 263.658,20.74 261.929,20.74 L260.705,20.74 L262.144,17.139 L265.889,17.067 C265.889,14.763 265.817,14.114 265.601,10.874 L268.337,9.938 L272.801,7.922 L275.249,6.554 L276.041,7.346 C275.537,10.73 275.465,11.666 275.321,17.139 L280.289,17.211 L280.722,17.211 C283.098,17.211 283.674,17.139 285.762,16.707 L286.266,17.427 L285.189,19.946 L285.189,19.946 Z" id="Shape" sketch:type="MSShapeGroup"></path>
            </g>
        </g>
    </g>
</svg>
